<svg viewBox="0 0 157.011 28.5578" fill="none" xmlns="http://www.w3.org/2000/svg">
<g id="&#231;&#187;&#132; 2">
<path id="&#232;&#183;&#175;&#229;&#190;&#132; 16" d="M118.301 28.5577H113.13C112.722 28.5577 112.391 28.227 112.391 27.819V12.9926C112.391 5.817 118.208 0 125.383 0H126.797C127.205 0 127.536 0.330732 127.536 0.738792V5.91033C127.536 6.31839 127.205 6.64912 126.797 6.64912H125.383C122.317 6.64912 119.04 8.31559 119.04 12.9926V27.819C119.04 28.227 118.709 28.5577 118.301 28.5577Z" fill="var(--fill-0, #83D4B3)"/>
<path id="&#232;&#183;&#175;&#229;&#190;&#132; 17" d="M45.8652 28.5577C36.8776 28.5577 33.6887 23.1089 33.6887 18.4425V0.808484C33.6887 0.400425 34.0194 0.0696927 34.4275 0.0696927H39.599C40.0071 0.0696927 40.3378 0.400425 40.3378 0.808484V18.4425C40.3378 20.7426 42.1976 21.9086 45.8652 21.9086C49.5328 21.9086 51.3926 20.7189 51.3926 18.1415V0.738792C51.3926 0.330732 51.7233 0 52.1314 0H57.3029C57.711 0 58.0417 0.330732 58.0417 0.738792V18.1415C58.0417 23.0712 54.8529 28.5577 45.8652 28.5577Z" fill="var(--fill-0, #83D4B3)"/>
<path id="&#232;&#183;&#175;&#229;&#190;&#132; 18" d="M69.0832 28.5577H63.9117C63.5036 28.5577 63.1729 28.227 63.1729 27.819V12.9926C63.1729 5.817 68.9899 0 76.1655 0H77.5793C77.9874 0 78.3181 0.330732 78.3181 0.738792V5.91033C78.3181 6.31839 77.9874 6.64912 77.5793 6.64912H76.1655C73.099 6.64912 69.822 8.31559 69.822 12.9926V27.819C69.822 28.227 69.4913 28.5577 69.0832 28.5577Z" fill="var(--fill-0, #83D4B3)"/>
<path id="&#232;&#183;&#175;&#229;&#190;&#132; 19" d="M15.2526 0.0325513C6.60058 -0.544445 -0.565208 6.63538 0.035183 15.2918C0.519338 22.2699 6.10657 27.9259 13.0773 28.5075C14.9487 28.6637 16.7506 28.4502 18.4249 27.9402C18.7379 27.8449 18.9534 27.5577 18.9534 27.2307V21.659C18.9534 21.098 18.3562 20.7473 17.8617 21.012C16.6878 21.64 15.3319 21.9702 13.8944 21.8991C10.0692 21.7099 6.93205 18.6395 6.66781 14.8187C6.35998 10.3685 9.89313 6.64917 14.2788 6.64917C18.4858 6.64917 21.9086 10.0717 21.9086 14.2789C21.9086 14.3491 21.9051 14.4183 21.9032 14.488H21.9086V27.819C21.9086 28.2271 22.2393 28.5578 22.6474 28.5578H27.8189C28.227 28.5578 28.5577 28.2271 28.5577 27.819V14.4974C28.5577 6.94986 22.7833 0.53493 15.2526 0.0325513Z" fill="var(--fill-0, #83D4B3)"/>
<path id="&#232;&#183;&#175;&#229;&#190;&#132; 20" d="M142.723 2.75871e-06C134.519 0.0051743 127.911 6.96533 128.489 15.2918C128.973 22.2699 134.56 27.9258 141.531 28.5075C143.402 28.6636 145.204 28.4501 146.878 27.9401C147.191 27.8448 147.407 27.5577 147.407 27.2306V21.6589C147.407 21.0982 146.81 20.7475 146.315 21.012C145.141 21.6399 143.785 21.9702 142.348 21.899C138.523 21.7099 135.386 18.6395 135.121 14.8187C134.813 10.3685 138.347 6.64913 142.732 6.64913C146.939 6.64913 150.362 10.0717 150.362 14.2789C150.362 14.3491 150.359 14.4183 150.357 14.4882H150.362V27.819C150.362 28.227 150.693 28.5577 151.101 28.5577H156.272C156.68 28.5577 157.011 28.227 157.011 27.819V14.5136C157.011 6.58584 150.651 -0.00492252 142.723 2.75871e-06Z" fill="var(--fill-0, #83D4B3)"/>
<path id="&#232;&#183;&#175;&#229;&#190;&#132; 21" d="M94.771 0.0312532C90.3964 -0.254413 86.4067 1.44579 83.6081 4.31354C83.2863 4.64328 83.3545 5.18753 83.7399 5.43995L88.2007 8.35891C88.4689 8.5345 88.8176 8.5143 89.0681 8.31434C90.5609 7.12242 92.5086 6.47795 94.6053 6.689C98.1579 7.04633 101.024 9.8919 101.404 13.4423C101.923 18.2885 97.8712 22.3575 93.0302 21.8687C89.465 21.5087 86.5973 18.6419 86.2308 15.0775C86.1806 14.5896 86.1772 14.1102 86.2161 13.6425C86.2427 13.3229 86.0659 13.0222 85.7708 12.8966L80.8618 10.8095C80.4372 10.629 79.9467 10.8762 79.8509 11.3276C79.5581 12.7062 79.4628 14.1567 79.6066 15.6513C80.2831 22.6762 86.0902 28.2137 93.1403 28.542C101.655 28.9387 108.649 21.832 108.064 13.2805C107.58 6.19918 101.854 0.49349 94.771 0.0312532Z" fill="var(--fill-0, #83D4B3)"/>
</g>
</svg>
