<svg viewBox="0 0 28.558 28.558" fill="none" xmlns="http://www.w3.org/2000/svg">
  <path d="M15.253.033C6.601-.544-.565 6.635.035 15.292c.484 6.978 6.071 12.634 13.042 13.216a14.29 14.29 0 0 0 5.348-.568.74.74 0 0 0 .528-.709v-5.572c0-.561-.597-.912-1.091-.647a7.56 7.56 0 0 1-3.968.887c-3.825-.189-6.962-3.259-7.226-7.08-.308-4.45 3.225-8.17 7.611-8.17 4.207 0 7.63 3.423 7.63 7.63 0 .07-.004.139-.006.209h.006v13.331c0 .408.33.739.738.739h5.172c.408 0 .739-.331.739-.739V14.497C28.558 6.95 22.783.535 15.253.033Z" fill="#fff"/>
</svg>
